<?xml version="1.0" encoding="UTF-8"?>
<svg id="Capa_2" data-name="Capa 2" xmlns="http://www.w3.org/2000/svg" xmlns:xlink="http://www.w3.org/1999/xlink" viewBox="0 0 1000 368">
  <defs>
    <style>
      .cls-1 {
        fill: none;
      }

      .cls-1, .cls-2, .cls-3, .cls-4, .cls-5 {
        stroke-width: 0px;
      }

      .cls-2 {
        fill: #d58331;
      }

      .cls-3 {
        fill: #fff;
      }

      .cls-4 {
        fill: #3d3d3d;
      }

      .cls-6 {
        clip-path: url(#clippath);
      }

      .cls-5 {
        fill: #2e1b0f;
      }
    </style>
    <clipPath id="clippath">
      <path class="cls-1" d="m88.02,352.84c-12.71-17.77-21.79-37.49-30.91-80.18-9.12-42.69-2.59-89.04,17.27-131.25,2.26-4.8,21.77-53.02,54.12-56.58,29.67-3.26,53.02-2.14,71.24,10.19,0,0,16.31,12.48,26.65,34.06,7.27,15.19,6.98,40.52,15.6,47.77,20.38,17.12-54.26,160.29-80.74,181.02l-73.23-5.03Z"/>
    </clipPath>
  </defs>
  <g>
    <path class="cls-3" d="m394.76,53.76v15h14.53v14.37h15.47v15h5.78v-44.37h37.96v122.49h-37.96v-15h-15.47v-14.37h-15.47v-15h-5.78v44.37h-39.06V53.76h40Z"/>
    <path class="cls-3" d="m574.74,53.76v122.49h-39.99v-32.81h-13.59v32.81h-40V53.76h93.58Zm-53.12,59.84h12.66v-30.93h-12.66v30.93Z"/>
    <path class="cls-3" d="m586.3,86.1v-32.34h93.58v32.34h-26.56v90.15h-40.46v-90.15h-26.56Z"/>
    <path class="cls-3" d="m690.35,164.22V56.73h39.06v89.68h21.25V56.73h39.06v107.49h-15v15h-69.37v-15h-15Z"/>
    <path class="cls-3" d="m894.86,53.76v69.99h-10.62v5.78h10.62v46.71h-39.99v-44.37h-13.59v44.37h-39.99V53.76h93.58Zm-53.12,44.37h12.66v-11.56h-12.66v11.56Z"/>
    <path class="cls-3" d="m1000,53.76v32.34h-52.18v12.5h52.18v32.81h-52.18v12.5h52.18v32.34h-92.64V53.76h92.64Z"/>
  </g>
  <g>
    <path class="cls-3" d="m505.84,328.33h-85.88v-14.04h-14.04v-93.48h14.04v-14.04h85.88v37.18h-56.01v47.2h56.01v37.18Zm-78.97-6.91h72.06v-23.36h-56.01v-61.02h56.01v-23.36h-72.06v14.04h-14.04v79.66h14.04v14.04Z"/>
    <path class="cls-3" d="m618,328.33h-44.34v-41.53h-5.82v41.53h-44.34v-121.56h94.5v121.56Zm-37.44-6.91h30.53v-36.82h-9.94v-12.32h9.94v-58.61h-80.69v107.74h30.53v-41.53h19.63v41.53Zm-.44-66.21h-18.76v-17.73h18.76v17.73Zm-11.85-6.91h4.94v-3.91h-4.94v3.91Z"/>
    <path class="cls-3" d="m731.92,328.33h-44.34v-30.71h-5.81v30.71h-44.35v-121.56h94.5v121.56Zm-37.44-6.91h30.53v-107.74h-80.69v107.74h30.53v-30.71h19.63v30.71Zm-.44-51.73h-18.75v-35.86h18.75v35.86Zm-11.84-6.91h4.94v-22.05h-4.94v22.05Z"/>
    <path class="cls-3" d="m795.68,328.33h-44.34v-121.56h93.63v37.18h-48.84v4.79h48.84v37.62h-49.28v41.97Zm-37.44-6.91h30.53v-41.97h49.28v-23.8h-48.84v-18.61h48.84v-23.36h-79.81v107.74Z"/>
    <path class="cls-3" d="m931.24,328.33h-44.78v-84.38h-24.86v-37.18h94.5v37.18h-24.86v84.38Zm-37.87-6.91h30.97v-84.38h24.86v-23.36h-80.69v23.36h24.86v84.38Z"/>
  </g>
  <g>
    <path class="cls-3" d="m130.44,71.64S124.36,9.56,179.86,2.98c12.41-1.47,21.89,4.94,28.73,10.88,23.77,20.62,18.58,70.49,18.58,70.49h-9.57s3.22-28.2-6.12-49.29c-5.43-12.25-16.01-22.91-31.52-22.14-42.2,2.12-39.67,58.54-39.67,58.54l-9.85.18Z"/>
    <path class="cls-3" d="m168.96,62.9s4.04-60.66,52.97-58.81c48.93,1.84,46.61,80.26,46.61,80.26h-9.57s1.49-19.49-4.68-38.11c-5.38-16.24-17.22-31.82-32.96-33.32-39.51-3.77-42.51,49.79-42.51,49.79l-9.85.18Z"/>
    <polygon class="cls-3" points="278.44 97.6 278.44 352.19 293.9 325.95 293.63 114.41 278.44 97.6"/>
    <polygon class="cls-3" points="281.55 94.15 295.08 109.82 315.44 94.98 281.55 94.15"/>
    <polygon class="cls-3" points="298.49 113.61 301.08 323.19 322.62 345.28 320.96 95.94 298.49 113.61"/>
    <polygon class="cls-3" points="279.06 365.23 298.49 334.1 320.62 353.08 279.06 365.23"/>
    <polygon class="cls-3" points="268.55 94.15 102.55 95.94 78.53 352.19 268.55 365.23 268.55 94.15"/>
    <path class="cls-4" d="m199.28,88.09c-48.79-15.7-58.03-29.01-93.55-2.09-11.5,8.71-26.46,20.45-32.91,37.51-5.34,14.13-10.88,19.56-14.59,30.01-5.62,15.81-11.21,32.17-12.01,49.29-2.29,48.9.53,92.5,32.31,149.38l94.29,6.52c42.67-36.81,99.01-127.9,66.26-215.81-17.49-46.96-19.82-38.03-39.8-54.81Z"/>
    <g class="cls-6">
      <rect class="cls-2" x="37.24" y="9.04" width="224.05" height="359.9"/>
    </g>
    <path class="cls-4" d="m144.8,147.67c11.74-1.1,16.57-7.92,18.78-13.35,2.21-5.43-1.29-13.53-8.47-18.22,0,0,9.68.09,18.63,4.09,5.48,2.45,11.26,6.28,14.83,9.12,4.44,3.54,7.13,10.91,10.49,10.68,3.7-.25,3.31-7.55,3.27-11.6s-.74-11.28-3.04-14.86c0,0,7.82,3.87,10.03,6.81,2.21,2.95,5.51,3.3,5.15,0-.33-3.02-2.57-29.04-22.64-36.31,0,0,4.87-3.89,12.33-6.16,0,0-23.61-17.33-47.42-6.7-21.72,9.69-33.78,23.3-33.78,49.36,0,10.49,4.07,28.81,21.83,27.15Z"/>
    <path class="cls-3" d="m159.2,132.84c.23,7.71-6.97,14.26-15.42,14.26-7.77,0-13.27-5.65-12.84-12.34.41-6.41,6.18-12.11,13.36-13.04,7.75-1.01,14.67,3.8,14.9,11.13Z"/>
    <path class="cls-5" d="m142.82,125.93c3.48,2.15,4.19,7.37,1.61,11.25-2.37,3.58-6.56,4.45-9.39,2.28-2.71-2.07-3.47-6.4-1.68-9.97,1.92-3.84,6.15-5.6,9.46-3.56Z"/>
    <path class="cls-4" d="m69.96,130.3c1.35-4.88,2.31-9.64,1.32-13.79-6.21,2.85-10.85,7.2-14.36,12.63-1.79-5.65-1.98-12.76,1.45-23.19-3.34.5-6.65,1.74-9.94,3.38.49-10.62,5.37-18.92,16.02-24.16-2-3.11-4.77-5.63-8.15-7.69,6.85-2.91,15.31-4.72,27.13-4.25-.49-2.21-3.13-5.04-6.01-7.94,5.21-1.1,23.98,6.98,30.37,24.78,5.72,15.92-.55,41.56-1.66,43.9-2.35,4.97-8.91,12.36-17.53,10.15-8.63-2.21-9.27-8.34-9.31-11.67s1.17-5.73,1.17-5.73l-10.51,3.57Z"/>
    <ellipse class="cls-3" cx="90.9" cy="131.41" rx="11.48" ry="9.87" transform="translate(-48.46 209.57) rotate(-84.62)"/>
    <ellipse class="cls-5" cx="88" cy="129.95" rx="6.38" ry="5.89" transform="translate(-49.63 205.37) rotate(-84.62)"/>
    <path class="cls-4" d="m2.45,172.29s9.96-28.85,43.77-32.26c30.51-3.08,43.35,21.36,55.09,19.98s42.98-15.35,75.47-15.06c32.49.29,64.94,17.68,75.57,33.01,8.33,12.01,21.38,70.05-10.74,98.06-42.55,37.11-59.12,56.71-59.12,56.71,0,0,11.34-16.71,10.81-35.02-.45-15.47-11.51-32.14-23.19-40.31-22.09-15.46-43.35-23.38-55.32-32.77-10.78-8.46-20.2-20.53-20.2-20.53,0,0-7.27,6.47-17.17,12.89-6.53,4.24-15.3,6.79-19.97,13.35-5.38,7.54-2.54,27.2-2.62,28.99l-4.42-29.63c-7.59,6.25-19.47,21.07-17.17,43.62-15.65-8.47-22.83-33.98-18.96-57.72,0,0-6.72,6.27-13.07,16.11-3.04-22.37-1.25-43.44,15.74-61.48,0,0-3.68-1.75-14.5,2.07Z"/>
    <path class="cls-3" d="m129.01,119.74s10.63-13.21,33.37-11.04,32.9,17.81,32.9,17.81c0,0-.6-13.35-10.95-19.83-10.35-6.49-18.27-6.49-18.27-6.49,0,0,9.66-3.86,21.95,0,12.3,3.86,18.04,9.85,18.04,9.85,0,0-3.77-15.28-19.24-20.07-15.46-4.79-24.44-1.06-24.44-1.06,5.62-4.49,12.87-8.17,22.96-10.45-26.98-4.54-51.58,6.48-56.33,41.28Z"/>
    <path class="cls-3" d="m94.68,82.27c1.69,4.02,2.77,7.81,3.22,11.37-8.75-12.14-18.36-14.44-28.26-13.35l15.32,11.09c-11.65-3.46-20.97-1.55-27.34,7.23,8.29-3.43,16.56-3.53,24.81.83-10.97.39-17.21,6.21-20.3,15.65,14.89-13.28,28.51-10.3,41.23,4.33,2.2-15.46-.32-28.06-8.7-37.14Z"/>
    <ellipse class="cls-3" cx="85.92" cy="125.42" rx="1.9" ry="1.34" transform="translate(-47.01 199.19) rotate(-84.62)"/>
    <ellipse class="cls-3" cx="136.64" cy="127.5" rx="2.49" ry="1.76" transform="translate(-3.12 251.57) rotate(-84.62)"/>
    <path class="cls-3" d="m242.96,178.23s-26.21-27.76-76.07-24.3c-24.84,1.72-41.69,7.18-55.13,13.71-3.9,1.9-9.85,1.11-11.64,4.51-3.4,6.49-.31,17.88.22,19.6,4.06,13.12,17.89,25.86,37.14,34.65-4.32-6.34-8.86-13.56-13.53-21.26,13.59,10.08,30.11,24.21,47.36,39.35-.95-5-5.86-13.51-12.09-23.19,25.4,18.47,41.41,39.15,47.71,62.13,10.39-24.05,4.99-46.93-12.84-68.89,20.15,11.23,34.13,28.71,38.52,55.92,14.7-25.83,11.14-57.53-22.04-84.36,21.05,7.49,36.03,21.31,46.07,40.27.57-23.38-8.32-40.48-26.6-51.36,4.33.3,8.64,1.44,12.93,3.22Z"/>
    <path class="cls-3" d="m17.36,161.87c10.31-2.9,20.46-3.24,30.44-.9-25.39,5.58-37.87,24.49-42.45,51.57,9.12-14.08,20.87-24.99,37.69-29.82-22.69,16.22-27.41,47.79-16.46,72.76,1.86-27.84,13.03-46.87,32.48-58.06-7.77,8.18-13.59,18.17-15.15,28.61,0,0,8.36-7.94,30.02-20.42,17.81-10.26,16.96-15.99,18.41-22.92.99-4.73,2.02-9.29,2.02-11.55s-1.84-5.05-6.12-8.86c-4.28-3.8-20.53-12.69-31.43-14.34-25.6-3.88-39.44,13.92-39.44,13.92Z"/>
    <path class="cls-5" d="m123.39,156.38c-.77,9.57-12.74,16.11-25.26,14.53-10.86-1.36-17.32-10.44-16.54-18.63.76-7.96,10.52-12.35,21.31-12.25,11.65.11,21.22,7.25,20.49,16.35Z"/>
    <path class="cls-3" d="m89.95,154c.23,1.21,1.05,2.97,2.45,3.31,1.03.25,1.69-.43,3.8-1.66,1.52-.88,4.24-2.52,6.87-3.04,3.28-.65,5.62.66,6.52-.24,1.1-1.1-2.31-6.45-10.11-5.7-10.13.99-9.77,6.04-9.53,7.32Z"/>
  </g>
</svg>